<svg xmlns="http://www.w3.org/2000/svg" viewBox="0 0 663.11 1000.3"><polygon points="331.94 500.47 331.17 500.47 331.17 499.83 331.94 500.47" style="fill:#bf2350"/><path d="M500,500Z" transform="translate(-168.45 0.15)" style="fill:#bf2350"/><path d="M798.22,246.72l-2-1.64L500-.15,203.75,245.08l-2,1.64-33.33,27.59V725.69l33.33,27.59,2,1.64L302,836.21l4.22,3.5L500,1000.15,796.25,754.92l2-1.64,33.33-27.59V274.31ZM751.31,688l-59.4,49.16V331.51l-85.72-65.19c.22,22.39.44,44.72.66,67.11q2.22,235.24,4.49,470.43L537,865.38V209.17l-40.12-48.44-40.12,48.44V860.24l-74.18-61.42q2.22-232.77,4.44-465.5l.66-67L302,331.51V732.09L248.69,688V312L500,104,751.31,312Z" transform="translate(-168.45 0.15)" style="fill:#fff"/></svg>